Coordinates
version=1
nRows=10
nColumns=46
inDegrees=yes

Units are S.I. units (second, meters, Newtons, ...)
Angles are in degrees.

endheader
time	pelvis_tilt	pelvis_list	pelvis_rotation	pelvis_tx	pelvis_ty	pelvis_tz	bb_angle	bb_tx	bb_ty	bb_tz	hip_flexion_r	hip_adduction_r	hip_rotation_r	knee_angle_r	knee_angle_r_beta	ankle_angle_r	subtalar_angle_r	mtp_angle_r	crank_angle_r	hip_flexion_l	hip_adduction_l	hip_rotation_l	knee_angle_l	knee_angle_l_beta	ankle_angle_l	subtalar_angle_l	mtp_angle_l	crank_angle_l	lumbar_extension	lumbar_bending	lumbar_rotation	arm_flex_r	arm_add_r	arm_rot_r	elbow_flex_r	pro_sup_r	wrist_flex_r	wrist_dev_r	arm_flex_l	arm_add_l	arm_rot_l	elbow_flex_l	pro_sup_l	wrist_flex_l	wrist_dev_l
      0.00500000	    -21.68512152	      4.87497366	      4.34312031	      0.08454484	      1.07212079	     -0.25586839	      0.00000000	      0.50000000	      0.00000000	      0.25000000	     46.26923397	    -12.02824359	     -4.40892265	     48.24243810	      0.84198938	     20.76074248	     -0.40036693	      0.00000000	      0.00000000	     94.67671226	     -0.36739073	     -3.32387978	     95.74804304	      1.67111860	     24.10747239	     -5.40611469	      0.00000000	      0.00000000	    -47.29578199	      0.52324955	    -69.44605327	      0.00000000	     -7.61907833	      0.00000000	     74.67985574	     45.28682419	      0.00000000	      0.00000000	      0.00000000	     -7.61907835	      0.00000000	     74.67985574	     45.28682419	      0.00000000	      0.00000000
      0.01000000	    -21.70215760	      4.83890147	      4.37455964	      0.08460476	      1.07205410	     -0.25592318	      0.00000000	      0.50000000	      0.00000000	      0.25000000	     46.27382303	    -12.03488180	     -4.46985996	     48.25086199	      0.84213641	     20.83524833	     -0.27735183	      0.00000000	      0.00000000	     94.71300672	     -0.33612965	     -3.28130167	     95.76943031	      1.67149188	     24.08786142	     -5.37053926	      0.00000000	      0.00000000	    -47.32685063	      0.56849507	    -70.24631413	      0.00000000	     -7.85581518	      0.00000000	     74.69640505	     45.25840124	      0.00000000	      0.00000000	      0.00000000	     -7.85581520	      0.00000000	     74.69640505	     45.25840124	      0.00000000	      0.00000000
      0.01500000	    -21.71617561	      4.80703795	      4.36326446	      0.08464468	      1.07199771	     -0.25587711	      0.00000000	      0.50000000	      0.00000000	      0.25000000	     46.28548759	    -11.98901699	     -4.46460138	     48.25170987	      0.84215121	     20.83632188	     -0.25775146	      0.00000000	      0.00000000	     94.73751539	     -0.35757784	     -3.24832592	     95.78410177	      1.67174795	     24.12280082	     -5.32241295	      0.00000000	      0.00000000	    -47.24698132	      0.59450708	    -69.20475141	      0.00000000	     -8.02913488	      0.00000000	     74.70783977	     45.24158854	      0.00000000	      0.00000000	      0.00000000	     -8.02913490	      0.00000000	     74.70783977	     45.24158854	      0.00000000	      0.00000000
      0.02000000	    -21.62669668	      4.87576213	      4.42705063	      0.08477323	      1.07229855	     -0.25587494	      0.00000000	      0.50000000	      0.00000000	      0.25000000	     46.17417921	    -12.11187186	     -4.53254177	     48.26925016	      0.84245734	     20.86631188	     -0.20106764	      0.00000000	      0.00000000	     94.60381899	     -0.30750041	     -3.31878649	     95.75037813	      1.67115936	     24.09217253	     -5.25343205	      0.00000000	      0.00000000	    -47.45305520	      0.54765768	    -69.76772269	      0.00000000	     -8.35908409	      0.00000000	     74.73241118	     45.19889146	      0.00000000	      0.00000000	      0.00000000	     -8.35908411	      0.00000000	     74.73241118	     45.19889146	      0.00000000	      0.00000000
      0.02500000	    -21.68167651	      4.89252359	      4.39596558	      0.08476282	      1.07224059	     -0.25570503	      0.00000000	      0.50000000	      0.00000000	      0.25000000	     46.25459422	    -12.04967504	     -4.41609065	     48.27134488	      0.84249390	     20.69822654	     -0.58485289	      0.00000000	      0.00000000	     94.65652797	     -0.34124442	     -3.34979140	     95.73107157	      1.67082240	     23.97195175	     -5.62414384	      0.00000000	      0.00000000	    -47.36647995	      0.43429756	    -68.44314069	      0.00000000	     -8.50670105	      0.00000000	     74.74133167	     45.18820014	      0.00000000	      0.00000000	      0.00000000	     -8.50670107	      0.00000000	     74.74133167	     45.18820014	      0.00000000	      0.00000000
      0.03000000	    -21.67084113	      4.82815419	      4.39251669	      0.08480176	      1.07219499	     -0.25574188	      0.00000000	      0.50000000	      0.00000000	      0.25000000	     46.22180238	    -12.01157038	     -4.48001467	     48.25286838	      0.84217143	     20.80880542	     -0.36060076	      0.00000000	      0.00000000	     94.67850163	     -0.35472471	     -3.26563489	     95.77524069	      1.67159329	     24.05834970	     -5.29449117	      0.00000000	      0.00000000	    -47.48246818	      0.45607497	    -69.24325236	      0.00000000	     -8.77294028	      0.00000000	     74.75961973	     45.16027122	      0.00000000	      0.00000000	      0.00000000	     -8.77294030	      0.00000000	     74.75961973	     45.16027122	      0.00000000	      0.00000000
      0.03500000	    -21.67037767	      4.81772828	      4.39956409	      0.08480863	      1.07219533	     -0.25574489	      0.00000000	      0.50000000	      0.00000000	      0.25000000	     46.21645057	    -12.00183830	     -4.48389009	     48.25005636	      0.84212235	     20.82290431	     -0.37017090	      0.00000000	      0.00000000	     94.68137984	     -0.35045938	     -3.25796201	     95.77639590	      1.67161345	     24.04549222	     -5.29389321	      0.00000000	      0.00000000	    -47.53418921	      0.38922323	    -68.63806276	      0.00000000	     -9.00515814	      0.00000000	     74.77579385	     45.13618228	      0.00000000	      0.00000000	      0.00000000	     -9.00515816	      0.00000000	     74.77579385	     45.13618228	      0.00000000	      0.00000000
      0.04000000	    -21.70092320	      4.88103965	      4.35556879	      0.08479518	      1.07221791	     -0.25564974	      0.00000000	      0.50000000	      0.00000000	      0.25000000	     46.28768281	    -12.01542315	     -4.42843639	     48.25971688	      0.84229096	     20.62788247	     -0.67858097	      0.00000000	      0.00000000	     94.68769350	     -0.40382115	     -3.35412663	     95.73841568	      1.67095057	     23.97267110	     -5.53488331	      0.00000000	      0.00000000	    -47.54884634	      0.21603083	    -67.34206962	      0.00000000	     -9.13010128	      0.00000000	     74.78281839	     45.12949280	      0.00000000	      0.00000000	      0.00000000	     -9.13010129	      0.00000000	     74.78281839	     45.12949280	      0.00000000	      0.00000000
      0.04500000	    -21.63184423	      4.80103877	      4.41440356	      0.08477838	      1.07220404	     -0.25576599	      0.00000000	      0.50000000	      0.00000000	      0.25000000	     46.18237470	    -11.99610026	     -4.49354969	     48.26906146	      0.84245405	     20.81597843	     -0.36345081	      0.00000000	      0.00000000	     94.65865175	     -0.33031561	     -3.23049699	     95.78807546	      1.67181730	     24.04201865	     -5.29689761	      0.00000000	      0.00000000	    -47.68925934	      0.23924457	    -66.78314150	      0.00000000	     -9.43674785	      0.00000000	     74.80221097	     45.10586678	      0.00000000	      0.00000000	      0.00000000	     -9.43674787	      0.00000000	     74.80221097	     45.10586678	      0.00000000	      0.00000000
      0.05000000	    -21.66056680	      4.77555787	      4.39926968	      0.08477509	      1.07212418	     -0.25574235	      0.00000000	      0.50000000	      0.00000000	      0.25000000	     46.22538195	    -11.95965740	     -4.48860795	     48.28517906	      0.84273535	     20.80591352	     -0.38902611	      0.00000000	      0.00000000	     94.70212830	     -0.34442059	     -3.19229232	     95.79969851	      1.67202016	     24.04879773	     -5.26635055	      0.00000000	      0.00000000	    -47.68955688	      0.11566272	    -65.31522212	      0.00000000	     -9.58531287	      0.00000000	     74.81037536	     45.09835347	      0.00000000	      0.00000000	      0.00000000	     -9.58531289	      0.00000000	     74.81037536	     45.09835347	      0.00000000	      0.00000000
